<svg xmlns="http://www.w3.org/2000/svg" viewBox="0 0 32 32" id="User"><g fill="none" fill-rule="evenodd"><path fill="#4f5b66" fill-rule="nonzero" d="M9.47989393,18.2175639 C9.25355995,18.1396144 9.01964208,18.0857353 8.78201634,18.0568007 C6.91277657,17.8291918 5.21294489,19.1599966 4.98533604,21.0292364 L4.25830321,27 L27.7416968,27 L27.014664,21.0292364 C26.9857294,20.7916107 26.9318503,20.5576928 26.8539181,20.3313529 C26.2408789,18.5508908 24.3005674,17.6045127 22.5201061,18.2175639 C20.4835041,18.9187959 18.3072501,19.2678444 16,19.2678444 C13.6927499,19.2678444 11.5164959,18.9187959 9.47989393,18.2175639 Z M16,17.2678444 C18.0900549,17.2678444 20.0463855,16.9540693 21.8689916,16.3265193 C24.6938431,15.353862 27.7723229,16.855381 28.7449628,19.6802384 C28.8686089,20.0393463 28.9540927,20.4104773 29,20.7874911 L29.7270328,26.7582546 C29.8605451,27.8547254 29.079913,28.8518238 27.9834422,28.985336 C27.9032306,28.995103 27.8225008,29 27.7416968,29 L4.25830321,29 C3.15373371,29 2.25830321,28.1045695 2.25830321,27 C2.25830321,26.919196 2.26320018,26.8384662 2.27296718,26.7582546 L3,20.7874911 C3.36112114,17.8217805 6.05805112,15.7103435 9.02376172,16.0714647 C9.40077549,16.1173719 9.77190644,16.2028558 10.1310144,16.3265019 C11.9536145,16.9540693 13.9099451,17.2678444 16,17.2678444 Z" class="color000000 svgShape"></path><path fill="#4f5b66" fill-rule="nonzero" d="M16,16 C12.1340068,16 9,12.8659932 9,9 C9,5.13400675 12.1340068,2 16,2 C19.8659932,2 23,5.13400675 23,9 C23,12.8659932 19.8659932,16 16,16 Z M16,14 C18.7614237,14 21,11.7614237 21,9 C21,6.23857625 18.7614237,4 16,4 C13.2385763,4 11,6.23857625 11,9 C11,11.7614237 13.2385763,14 16,14 Z" class="color000000 svgShape"></path></g></svg>